<svg width="50" height="50" viewBox="0 0 50 50" fill="none" xmlns="http://www.w3.org/2000/svg">
<path d="M11.6974 41.6667C10.7385 41.6667 9.93793 41.3455 9.29557 40.7032C8.65321 40.0608 8.33203 39.2602 8.33203 38.3013V11.6987C8.33203 10.7399 8.65321 9.93928 9.29557 9.29692C9.93793 8.65455 10.7385 8.33337 11.6974 8.33337H38.3C39.2589 8.33337 40.0595 8.65455 40.7018 9.29692C41.3442 9.93928 41.6654 10.7399 41.6654 11.6987V38.3013C41.6654 39.2602 41.3442 40.0608 40.7018 40.7032C40.0595 41.3455 39.2589 41.6667 38.3 41.6667H11.6974ZM11.6974 39.5834H38.3C38.6205 39.5834 38.9143 39.4498 39.1814 39.1827C39.4485 38.9156 39.582 38.6218 39.582 38.3013V23.718H10.4154V38.3013C10.4154 38.6218 10.5489 38.9156 10.816 39.1827C11.0831 39.4498 11.3769 39.5834 11.6974 39.5834ZM10.4154 21.6347H39.582V11.6987C39.582 11.3783 39.4485 11.0845 39.1814 10.8173C38.9143 10.5502 38.6205 10.4167 38.3 10.4167H11.6974C11.3769 10.4167 11.0831 10.5502 10.816 10.8173C10.5489 11.0845 10.4154 11.3783 10.4154 11.6987V21.6347ZM24.9987 16.6667H37.4987V12.5H24.9987V16.6667Z" fill="#404040"/>
</svg>
