<svg width="100" height="100" viewBox="0 0 100 100" fill="none" xmlns="http://www.w3.org/2000/svg">
<path d="M44.0878 67.7243L72.1005 39.7115L67.7095 35.3206L44.0878 58.9424L32.2128 47.0674L27.8218 51.4583L44.0878 67.7243ZM50.0082 89.5832C44.5335 89.5832 39.3875 88.5443 34.5703 86.4665C29.753 84.3888 25.5626 81.569 21.9992 78.0072C18.4357 74.4453 15.6147 70.2568 13.536 65.4416C11.4573 60.6266 10.418 55.4817 10.418 50.007C10.418 44.5322 11.4569 39.3863 13.5346 34.569C15.6124 29.7517 18.4322 25.5614 21.994 21.998C25.5559 18.4345 29.7444 15.6135 34.5595 13.5348C39.3746 11.4561 44.5195 10.4167 49.9942 10.4167C55.4689 10.4167 60.6149 11.4556 65.4321 13.5334C70.2494 15.6112 74.4398 18.431 78.0032 21.9928C81.5667 25.5547 84.3877 29.7432 86.4664 34.5583C88.5451 39.3734 89.5844 44.5183 89.5844 49.993C89.5844 55.4677 88.5455 60.6137 86.4678 65.4309C84.39 70.2482 81.5702 74.4386 78.0084 78.002C74.4465 81.5654 70.258 84.3865 65.4429 86.4652C60.6278 88.5439 55.4829 89.5832 50.0082 89.5832Z" fill="#79A258"/>
</svg>
