<svg width="14" height="15" viewBox="0 0 14 15" fill="none" xmlns="http://www.w3.org/2000/svg">
<path d="M4.4008 12.6507C4.54067 12.7905 4.63593 12.9687 4.67452 13.1627C4.71312 13.3567 4.69333 13.5578 4.61765 13.7405C4.54196 13.9232 4.41379 14.0794 4.24934 14.1893C4.08488 14.2992 3.89154 14.3579 3.69375 14.3579C3.49596 14.3579 3.30262 14.2992 3.13816 14.1893C2.97371 14.0794 2.84554 13.9232 2.76986 13.7405C2.69417 13.5578 2.67438 13.3567 2.71298 13.1627C2.75157 12.9687 2.84683 12.7905 2.9867 12.6507C3.17423 12.4632 3.42856 12.3579 3.69375 12.3579C3.95894 12.3579 4.21327 12.4632 4.4008 12.6507ZM9.446 12.6507C9.30615 12.7906 9.2109 12.9687 9.17232 13.1627C9.13373 13.3567 9.15353 13.5578 9.22922 13.7405C9.30491 13.9232 9.43308 14.0794 9.59753 14.1893C9.76198 14.2992 9.95532 14.3578 10.1531 14.3578C10.3509 14.3578 10.5442 14.2992 10.7087 14.1893C10.8731 14.0794 11.0013 13.9232 11.077 13.7405C11.1527 13.5578 11.1725 13.3567 11.1339 13.1627C11.0953 12.9687 11.0001 12.7906 10.8602 12.6507C10.6727 12.4632 10.4183 12.3578 10.1531 12.3578C9.88789 12.3578 9.63354 12.4632 9.446 12.6507ZM13.62 3.93L13.12 7.61C13.0343 8.20759 12.7368 8.7545 12.2815 9.151C11.8263 9.5475 11.2437 9.76719 10.64 9.77H2.47C2.50126 10.1401 2.67106 10.4847 2.94545 10.735C3.21985 10.9853 3.57861 11.1228 3.95 11.12H11.79C11.9225 11.1204 12.0494 11.1732 12.1431 11.2669C12.2368 11.3606 12.2896 11.4875 12.29 11.62C12.2907 11.6858 12.2782 11.7512 12.2533 11.8121C12.2284 11.8731 12.1916 11.9285 12.145 11.975C12.0985 12.0216 12.0431 12.0584 11.9821 12.0833C11.9212 12.1082 11.8558 12.1207 11.79 12.12H3.95C3.28703 12.1198 2.65129 11.8563 2.1825 11.3875C1.71371 10.9187 1.45024 10.283 1.45 9.62V1.5C1.4496 1.36751 1.3968 1.24057 1.30312 1.14688C1.20943 1.0532 1.08249 1.0004 0.95 1H0.5C0.367513 0.999604 0.240566 0.946799 0.146884 0.853116C0.0532012 0.759434 0.000395682 0.632487 0 0.5C0.00208738 0.368043 0.0554358 0.242075 0.148755 0.148756C0.242075 0.055436 0.368043 0.00208738 0.5 0H0.95C1.34747 0.00116081 1.72832 0.159569 2.00938 0.440622C2.29043 0.721675 2.44884 1.10253 2.45 1.5V2.22H12.14C12.3543 2.22084 12.5658 2.26756 12.7605 2.35701C12.9552 2.44645 13.1285 2.57655 13.2687 2.73856C13.4089 2.90056 13.5128 3.09072 13.5734 3.29623C13.634 3.50174 13.6499 3.71784 13.62 3.93ZM8.94 4.8C8.8299 4.72719 8.69541 4.70103 8.56604 4.72728C8.43668 4.75353 8.32301 4.83003 8.25 4.94L7.38 6.24L7.79 6.52L7.26 6.25L6.82 5.67C6.7802 5.61779 6.73043 5.574 6.67357 5.54117C6.61672 5.50835 6.55392 5.48713 6.4888 5.47876C6.42369 5.47039 6.35756 5.47503 6.29425 5.4924C6.23094 5.50978 6.17171 5.53956 6.12 5.58C6.0151 5.66043 5.94589 5.77875 5.9272 5.9096C5.90851 6.04045 5.94182 6.17342 6.02 6.28L6.46 6.85C6.55989 6.98377 6.68968 7.09232 6.83901 7.16699C6.98833 7.24165 7.15305 7.28035 7.32 7.28H7.35C7.52143 7.27529 7.68919 7.22918 7.83894 7.1456C7.98869 7.06201 8.116 6.94344 8.21 6.8L9.08 5.49C9.15281 5.3799 9.17897 5.24541 9.15272 5.11604C9.12647 4.98668 9.04997 4.87301 8.94 4.8Z" fill="#79A258"/>
</svg>
