<svg width="48" height="48" viewBox="0 0 48 48" fill="none" xmlns="http://www.w3.org/2000/svg">
<path d="M34.25 25.4H9.5C9.06667 25.4 8.70833 25.2583 8.425 24.975C8.14167 24.6916 8 24.3333 8 23.9C8 23.4666 8.14167 23.1083 8.425 22.825C8.70833 22.5416 9.06667 22.4 9.5 22.4H34.25L26.85 15C26.55 14.7 26.4083 14.35 26.425 13.95C26.4417 13.55 26.6 13.2 26.9 12.9C27.2 12.6 27.55 12.45 27.95 12.45C28.35 12.45 28.7 12.6 29 12.9L38.95 22.85C39.1167 23.0166 39.2333 23.1833 39.3 23.35C39.3667 23.5166 39.4 23.7 39.4 23.9C39.4 24.1 39.3667 24.2833 39.3 24.45C39.2333 24.6166 39.1167 24.7833 38.95 24.95L29.05 34.85C28.75 35.15 28.4 35.3 28 35.3C27.6 35.3 27.25 35.15 26.95 34.85C26.65 34.55 26.5 34.1916 26.5 33.775C26.5 33.3583 26.65 33 26.95 32.7L34.25 25.4Z" fill="#662687"/>
</svg>
