<svg width="51" height="49" viewBox="0 0 51 49" fill="none" xmlns="http://www.w3.org/2000/svg">
<path d="M50.2526 2.21747C50.0202 1.57067 49.4995 1.04337 48.748 0.692562C46.6465 -0.288595 42.6205 0.0567284 38.4914 1.57231C37.8955 1.79102 37.3096 2.03001 36.7412 2.28544C36.3663 1.86283 35.9135 1.47804 35.3582 1.15738C33.6004 0.142237 31.819 0.343402 30.3083 0.673926L17.9359 3.3817C16.9459 3.59821 16.1577 4.18143 15.6562 5.0683L0.845084 31.2515C-0.101541 32.9244 0.477835 35.0643 2.13594 36.0219L22.4656 47.7591C22.9962 48.0655 23.5855 48.2222 24.1824 48.2222C24.4877 48.2222 24.7946 48.1811 25.0978 48.0989C25.9983 47.8533 26.7476 47.2701 27.2081 46.4561L42.0186 20.273C42.5185 19.3888 42.6155 18.4104 42.2998 17.444L40.1369 10.8308C40.6379 10.6801 41.1438 10.5124 41.6514 10.326C44.2583 9.36895 46.5785 8.07097 48.1845 6.67104C49.9863 5.10064 50.7208 3.51928 50.2526 2.21747ZM40.7672 17.9456C40.9437 18.4849 40.8938 18.9865 40.6154 19.4787L25.8043 45.6619C25.5576 46.0982 25.1559 46.4112 24.6735 46.5427C24.1961 46.6732 23.6984 46.6091 23.2719 46.3624L2.94224 34.6247C2.04769 34.1084 1.7369 32.9513 2.24885 32.0457L17.0594 5.8631C17.3367 5.37307 17.7358 5.07707 18.2801 4.95813L30.6525 2.25035C31.3454 2.09852 31.9417 2.02178 32.4734 2.02178C33.2748 2.02178 33.9304 2.19664 34.5514 2.55512C35.5863 3.15258 36.2364 4.09318 36.7954 5.80171L38.0731 9.70825C36.4233 10.0771 34.9943 10.1901 33.8876 10.1232C34.0159 9.51859 33.9731 8.88879 33.7544 8.29297C33.1246 6.57731 31.2226 5.68989 29.5152 6.31476C28.6902 6.61678 28.0319 7.22246 27.6619 8.02109C27.2892 8.8252 27.2525 9.72743 27.5589 10.5617C28.0516 11.9046 29.3239 12.74 30.6728 12.74C31.0472 12.74 31.427 12.6758 31.7981 12.5399C32.303 12.3552 32.7442 12.0564 33.0966 11.67C33.5346 11.7292 34.0066 11.7588 34.5081 11.7588C35.726 11.7588 37.1134 11.5845 38.5763 11.2463L40.7672 17.9456ZM29.1249 8.69913C29.2932 8.33682 29.5776 8.05288 29.9339 7.88625C29.6637 8.64761 29.7366 9.2533 29.8901 9.68084C30.0929 10.2449 30.5149 10.7185 31.119 11.0632C30.2793 11.2989 29.3809 10.8456 29.0723 10.0053C28.9149 9.5756 28.9336 9.11188 29.1249 8.69913ZM32.0777 9.74442C31.7186 9.57669 31.4939 9.37169 31.4084 9.1349C31.3075 8.85535 31.3859 8.47933 31.6282 8.04576C31.899 8.2387 32.1171 8.51277 32.2405 8.84877C32.3583 9.16998 32.3775 9.51092 32.2997 9.83486C32.2207 9.80581 32.1462 9.77621 32.0777 9.74442ZM41.0961 8.81205C40.5973 8.99513 40.11 9.15628 39.6359 9.29824L38.3286 5.30016C38.151 4.75806 37.9405 4.19348 37.6582 3.64535C38.1121 3.44748 38.5758 3.26001 39.0472 3.0868C43.2842 1.5312 46.692 1.51312 48.0656 2.15443C48.4246 2.32216 48.6499 2.52716 48.7349 2.76395C49.1657 3.96053 46.4678 6.84042 41.0961 8.81205ZM25.9824 36.279C25.8333 36.5377 25.562 36.6824 25.283 36.6824C25.146 36.6824 25.0073 36.6473 24.8807 36.5744L10.3124 28.1633C9.92654 27.9408 9.79444 27.4475 10.0175 27.0616C10.2401 26.6757 10.7334 26.5436 11.1193 26.7667L25.6875 35.1778C26.0729 35.4003 26.2055 35.8936 25.9824 36.279ZM23.4101 40.7347C23.261 40.9935 22.9896 41.1382 22.7106 41.1382C22.5736 41.1382 22.4349 41.1031 22.3083 41.0302L7.74004 32.6191C7.35416 32.3965 7.22206 31.9032 7.44515 31.5173C7.66769 31.1315 8.16101 30.9994 8.54689 31.2224L23.1152 39.6335C23.5005 39.8561 23.6326 40.3494 23.4101 40.7347ZM28.5554 31.8232C28.4063 32.0819 28.135 32.2266 27.856 32.2266C27.7189 32.2266 27.5802 32.1915 27.4536 32.1186L12.8854 23.707C12.4995 23.4845 12.3674 22.9911 12.5905 22.6053C12.813 22.2194 13.3063 22.0873 13.6922 22.3104L28.2605 30.7215C28.6458 30.944 28.7779 31.4373 28.5554 31.8232Z" fill="#15403D"/>
</svg>
