<svg width="15" height="16" viewBox="0 0 15 16" fill="none" xmlns="http://www.w3.org/2000/svg">
<path d="M5.18913 14.2703C5.18913 15.2255 4.41461 16 3.4594 16C2.5042 16 1.72968 15.2255 1.72968 14.2703C1.72968 13.3151 2.5042 12.5406 3.4594 12.5406C4.41461 12.5406 5.18913 13.3151 5.18913 14.2703Z" fill="white"/>
<path d="M12.9729 14.2703C12.9729 15.2255 12.1984 16 11.2432 16C10.288 16 9.51349 15.2255 9.51349 14.2703C9.51349 13.3151 10.288 12.5406 11.2432 12.5406C12.1984 12.5406 12.9729 13.3151 12.9729 14.2703Z" fill="white"/>
<path d="M13.1548 3.02703H3.45945V0.864865C3.45945 0.635523 3.36832 0.415442 3.20617 0.253282C3.04401 0.091122 2.82392 0 2.59458 0H0.864853C0.555779 0 0.27027 0.164863 0.11583 0.432432C-0.03861 0.700001 -0.03861 1.02973 0.11583 1.2973C0.27027 1.56486 0.555789 1.72973 0.864853 1.72973H1.72972V9.51351C1.72972 9.9722 1.91196 10.4122 2.23628 10.7367C2.5608 11.061 3.00077 11.2432 3.45945 11.2432H11.0703C11.4071 11.2436 11.7366 11.1456 12.0187 10.9612C12.3005 10.7768 12.5225 10.5141 12.6573 10.2054L14.7372 5.44865C14.9704 4.91431 14.9189 4.29848 14.5998 3.81045C14.2809 3.32241 13.7376 3.02802 13.1546 3.02703L13.1548 3.02703Z" fill="white"/>
</svg>
