<svg width="50" height="50" viewBox="0 0 50 50" fill="none" xmlns="http://www.w3.org/2000/svg">
<path d="M24.9479 28.8542L34.1666 19.6354C34.4791 19.3229 34.8437 19.1753 35.2604 19.1927C35.6771 19.2101 36.0416 19.375 36.3541 19.6875C36.6666 20 36.8229 20.3733 36.8229 20.8073C36.8229 21.2413 36.6666 21.6146 36.3541 21.9271L26.0416 32.2396C25.868 32.4132 25.6944 32.5347 25.5208 32.6042C25.3472 32.6736 25.1562 32.7083 24.9479 32.7083C24.7396 32.7083 24.5486 32.6736 24.375 32.6042C24.2014 32.5347 24.0278 32.4132 23.8541 32.2396L13.4896 21.875C13.1771 21.5625 13.0208 21.1892 13.0208 20.7552C13.0208 20.3212 13.1771 19.9479 13.4896 19.6354C13.8021 19.3229 14.1753 19.1667 14.6094 19.1667C15.0434 19.1667 15.4166 19.3229 15.7291 19.6354L24.9479 28.8542Z" fill="white"/>
</svg>
