<svg width="51" height="53" viewBox="0 0 51 53" fill="none" xmlns="http://www.w3.org/2000/svg">
<path d="M20.8018 13.9092C20.8018 12.2926 22.1168 10.9775 23.7335 10.9775H27.9217C29.5384 10.9775 30.8535 12.2926 30.8535 13.9092V27.7303H32.5287V13.9092C32.5287 11.5387 30.7278 9.58701 28.4327 9.33571C29.6389 8.50645 30.4346 7.11596 30.4346 5.53282C30.4346 2.99476 28.3657 0.925781 25.8276 0.925781C23.2895 0.925781 21.2206 2.99476 21.2206 5.53282C21.2206 7.10758 22.0163 8.49807 23.2225 9.33571C20.919 9.58701 19.1265 11.5471 19.1265 13.9092V27.7303H20.8018V13.9092ZM22.8959 5.53282C22.8959 3.91617 24.211 2.60107 25.8276 2.60107C27.4443 2.60107 28.7594 3.91617 28.7594 5.53282C28.7594 7.14947 27.4443 8.46456 25.8276 8.46456C24.211 8.46456 22.8959 7.14947 22.8959 5.53282Z" fill="#15403D"/>
<path d="M37.5546 19.7727C37.5546 18.6168 38.4928 17.6786 39.6487 17.6786H43.8369C44.9929 17.6786 45.931 18.6168 45.931 19.7727V27.7303H47.6063V19.7727C47.6063 17.7875 46.0651 16.1792 44.1217 16.0285C45.085 15.2997 45.7216 14.1605 45.7216 12.8622C45.7216 10.6675 43.9375 8.88336 41.7428 8.88336C39.5482 8.88336 37.764 10.6675 37.764 12.8622C37.764 14.1605 38.4006 15.3081 39.3639 16.0285C37.4206 16.1792 35.8793 17.7875 35.8793 19.7727V27.7303H37.5546V19.7727ZM41.7428 10.5586C43.016 10.5586 44.0463 11.5889 44.0463 12.8622C44.0463 14.1354 43.016 15.1657 41.7428 15.1657C40.4696 15.1657 39.4393 14.1354 39.4393 12.8622C39.4393 11.5889 40.4696 10.5586 41.7428 10.5586Z" fill="#15403D"/>
<path d="M5.72417 19.7727C5.72417 18.6168 6.66233 17.6786 7.81828 17.6786H12.0065C13.1624 17.6786 14.1006 18.6168 14.1006 19.7727V27.7303H15.7759V19.7727C15.7759 17.7875 14.2346 16.1792 12.2913 16.0285C13.2546 15.2997 13.8912 14.1605 13.8912 12.8622C13.8912 10.6675 12.107 8.88336 9.91239 8.88336C7.71776 8.88336 5.93359 10.6675 5.93359 12.8622C5.93359 14.1605 6.57019 15.3081 7.53348 16.0285C5.59015 16.1792 4.04889 17.7875 4.04889 19.7727V27.7303H5.72417V19.7727ZM9.91239 10.5586C11.1856 10.5586 12.2159 11.5889 12.2159 12.8622C12.2159 14.1354 11.1856 15.1657 9.91239 15.1657C8.63917 15.1657 7.60887 14.1354 7.60887 12.8622C7.60887 11.5889 8.63917 10.5586 9.91239 10.5586Z" fill="#15403D"/>
<path d="M11.6965 48.4955C15.8596 51.3519 20.7431 52.8596 25.8276 52.8596C38.7524 52.8596 49.4994 43.1765 50.8228 30.327C50.848 30.0925 50.7726 29.858 50.6134 29.6821C50.4543 29.5062 50.2281 29.4056 49.9936 29.4056H1.66159C1.42705 29.4056 1.20088 29.5062 1.04173 29.6821C0.882579 29.858 0.807191 30.0925 0.832321 30.327C1.59458 37.6983 5.55663 44.3241 11.7049 48.4955H11.6965ZM25.8276 51.1843C24.5376 51.1843 23.2728 51.0755 22.0247 50.866L26.2045 43.344C26.2715 43.2184 26.4139 43.143 26.5479 43.143H32.0848C33.0983 43.143 33.9527 42.4226 34.1119 41.4258L34.9579 36.3246C34.9914 36.1235 35.184 35.9895 35.3851 36.0146L47.0786 37.6815C43.3259 45.7313 35.1924 51.1843 25.8276 51.1843ZM14.9717 33.0996L15.9769 31.0809H49.0387C48.7874 32.8232 48.3518 34.4985 47.7487 36.09L35.6196 34.3561C34.5223 34.197 33.4836 34.9508 33.2993 36.0398L32.445 41.141C32.4114 41.3253 32.2607 41.4593 32.068 41.4593H26.5312C25.7941 41.4593 25.1072 41.853 24.7303 42.5064L20.2908 50.5059C17.6773 49.8776 15.1979 48.7887 12.9279 47.2893L12.1908 42.9001C12.1656 42.7577 12.2243 42.6153 12.3415 42.5231L16.5884 39.315C16.6554 39.2647 16.7056 39.2228 16.7475 39.1809L17.9286 37.9999C18.3893 37.5391 18.6071 36.869 18.4982 36.2157C18.3893 35.5539 17.9872 35.0095 17.3925 34.7163L15.1309 33.5855C15.0136 33.5268 14.9634 33.4263 14.9466 33.3677C14.9298 33.3174 14.9047 33.2085 14.9717 33.0829V33.0996ZM14.109 31.0809L13.4807 32.3458C13.2294 32.8316 13.1959 33.3928 13.3635 33.9122C13.5394 34.4315 13.8995 34.8503 14.3854 35.1016L16.6554 36.2324C16.7978 36.3078 16.8397 36.4335 16.8564 36.5088C16.8648 36.5675 16.8732 36.7183 16.7559 36.8355L15.6 37.9915L16.1277 38.6448L15.5246 38.0501L11.3364 41.208C10.7249 41.6604 10.4233 42.4142 10.5322 43.1849L10.9845 45.8904C6.42777 42.1797 3.42901 36.9193 2.59137 31.0893H14.0922L14.109 31.0809Z" fill="#15403D"/>
</svg>
