<svg width="50" height="50" viewBox="0 0 50 50" fill="none" xmlns="http://www.w3.org/2000/svg">
<path d="M18.8218 47.9885H31.0345V44.6839L32.0402 44.3966C35.8716 43.295 39.1284 41.4272 41.8103 38.7931C44.4923 36.159 46.3123 33.477 47.2701 30.7471H2.72989C3.68774 33.477 5.48372 36.159 8.11782 38.7931C10.7519 41.4272 13.9847 43.295 17.8161 44.3966L18.8218 44.6839V47.9885ZM16.8103 50V46.1207C12.4042 44.8755 8.7045 42.6006 5.71121 39.296C2.71791 35.9914 0.814176 32.4713 0 28.7356H5.74713V4.81322L50 0V2.08333L20.4023 5.31609V11.7098H50V13.7213H20.4023V28.7356H50C49.2816 32.4713 47.3779 35.9914 44.2888 39.296C41.1997 42.6006 37.4521 44.8755 33.046 46.1207V50H16.8103ZM14.0805 11.7098H18.3908V5.53161L14.0805 5.96264V11.7098ZM7.75862 11.7098H12.069V6.17816L7.75862 6.68103V11.7098ZM14.0805 28.7356H18.3908V13.7213H14.0805V28.7356ZM7.75862 28.7356H12.069V13.7213H7.75862V28.7356Z" fill="#15403D"/>
</svg>
