<svg width="50" height="50" viewBox="0 0 50 50" fill="none" xmlns="http://www.w3.org/2000/svg">
<path d="M2.8481 9.91559C1.27764 9.91559 0 8.63795 0 7.06749V4.95778C0 3.38732 1.27764 2.10968 2.8481 2.10968C4.41857 2.10968 5.6962 3.38732 5.6962 4.95778V7.06749C5.6962 8.63795 4.41857 9.91559 2.8481 9.91559ZM2.8481 3.58647C2.09198 3.58647 1.47679 4.20166 1.47679 4.95778V7.06749C1.47679 7.8236 2.09198 8.43879 2.8481 8.43879C3.60422 8.43879 4.21941 7.8236 4.21941 7.06749V4.95778C4.21941 4.20166 3.60422 3.58647 2.8481 3.58647Z" fill="#15403D"/>
<path d="M7.06752 12.0253C5.49706 12.0253 4.21942 10.7477 4.21942 9.17722V2.8481C4.21942 1.27764 5.49706 0 7.06752 0C8.63799 0 9.91562 1.27764 9.91562 2.8481V9.17722C9.91562 10.7477 8.63799 12.0253 7.06752 12.0253ZM7.06752 1.47679C6.3114 1.47679 5.69621 2.09198 5.69621 2.8481V9.17722C5.69621 9.93333 6.3114 10.5485 7.06752 10.5485C7.82364 10.5485 8.43883 9.93333 8.43883 9.17722V2.8481C8.43883 2.09198 7.82364 1.47679 7.06752 1.47679Z" fill="#15403D"/>
<path d="M47.1519 9.91559C45.5814 9.91559 44.3038 8.63795 44.3038 7.06749V4.95778C44.3038 3.38732 45.5814 2.10968 47.1519 2.10968C48.7223 2.10968 50 3.38732 50 4.95778V7.06749C50 8.63795 48.7223 9.91559 47.1519 9.91559ZM47.1519 3.58647C46.3958 3.58647 45.7806 4.20166 45.7806 4.95778V7.06749C45.7806 7.8236 46.3958 8.43879 47.1519 8.43879C47.908 8.43879 48.5232 7.8236 48.5232 7.06749V4.95778C48.5232 4.20166 47.908 3.58647 47.1519 3.58647Z" fill="#15403D"/>
<path d="M42.9325 12.0253C41.362 12.0253 40.0844 10.7477 40.0844 9.17722V2.8481C40.0844 1.27764 41.362 0 42.9325 0C44.503 0 45.7806 1.27764 45.7806 2.8481V9.17722C45.7806 10.7477 44.503 12.0253 42.9325 12.0253ZM42.9325 1.47679C42.1764 1.47679 41.5612 2.09198 41.5612 2.8481V9.17722C41.5612 9.93333 42.1764 10.5485 42.9325 10.5485C43.6886 10.5485 44.3038 9.93333 44.3038 9.17722V2.8481C44.3038 2.09198 43.6886 1.47679 42.9325 1.47679Z" fill="#15403D"/>
<path d="M40.8228 9.91559H9.17724C8.76943 9.91559 8.43884 9.585 8.43884 9.17719V2.84808C8.43884 2.44027 8.76943 2.10968 9.17724 2.10968H40.8228C41.2306 2.10968 41.5612 2.44027 41.5612 2.84808V9.17719C41.5612 9.585 41.2306 9.91559 40.8228 9.91559ZM9.91564 8.43879H40.0844V3.58647H9.91564V8.43879Z" fill="#15403D"/>
<path d="M2.8481 47.8903C1.27764 47.8903 0 46.6127 0 45.0422V42.9325C0 41.362 1.27764 40.0844 2.8481 40.0844C4.41857 40.0844 5.6962 41.362 5.6962 42.9325V45.0422C5.6962 46.6127 4.41857 47.8903 2.8481 47.8903ZM2.8481 41.5612C2.09198 41.5612 1.47679 42.1764 1.47679 42.9325V45.0422C1.47679 45.7983 2.09198 46.4135 2.8481 46.4135C3.60422 46.4135 4.21941 45.7983 4.21941 45.0422V42.9325C4.21941 42.1764 3.60422 41.5612 2.8481 41.5612Z" fill="#15403D"/>
<path d="M7.06752 50C5.49706 50 4.21942 48.7223 4.21942 47.1519V40.8228C4.21942 39.2523 5.49706 37.9747 7.06752 37.9747C8.63799 37.9747 9.91562 39.2523 9.91562 40.8228V47.1519C9.91562 48.7223 8.63799 50 7.06752 50ZM7.06752 39.4515C6.3114 39.4515 5.69621 40.0667 5.69621 40.8228V47.1519C5.69621 47.908 6.3114 48.5232 7.06752 48.5232C7.82364 48.5232 8.43883 47.908 8.43883 47.1519V40.8228C8.43883 40.0667 7.82364 39.4515 7.06752 39.4515Z" fill="#15403D"/>
<path d="M47.1519 47.8903C45.5814 47.8903 44.3038 46.6127 44.3038 45.0422V42.9325C44.3038 41.362 45.5814 40.0844 47.1519 40.0844C48.7223 40.0844 50 41.362 50 42.9325V45.0422C50 46.6127 48.7223 47.8903 47.1519 47.8903ZM47.1519 41.5612C46.3958 41.5612 45.7806 42.1764 45.7806 42.9325V45.0422C45.7806 45.7983 46.3958 46.4135 47.1519 46.4135C47.908 46.4135 48.5232 45.7983 48.5232 45.0422V42.9325C48.5232 42.1764 47.908 41.5612 47.1519 41.5612Z" fill="#15403D"/>
<path d="M42.9325 50C41.362 50 40.0844 48.7223 40.0844 47.1519V40.8228C40.0844 39.2523 41.362 37.9747 42.9325 37.9747C44.503 37.9747 45.7806 39.2523 45.7806 40.8228V47.1519C45.7806 48.7223 44.503 50 42.9325 50ZM42.9325 39.4515C42.1764 39.4515 41.5612 40.0667 41.5612 40.8228V47.1519C41.5612 47.908 42.1764 48.5232 42.9325 48.5232C43.6886 48.5232 44.3038 47.908 44.3038 47.1519V40.8228C44.3038 40.0667 43.6886 39.4515 42.9325 39.4515Z" fill="#15403D"/>
<path d="M40.8228 47.8903H9.17724C8.76943 47.8903 8.43884 47.5597 8.43884 47.1519V40.8228C8.43884 40.415 8.76943 40.0844 9.17724 40.0844H40.8228C41.2306 40.0844 41.5612 40.415 41.5612 40.8228V47.1519C41.5612 47.5597 41.2306 47.8903 40.8228 47.8903ZM9.91564 46.4135H40.0844V41.5612H9.91564V46.4135Z" fill="#15403D"/>
<path d="M38.7131 41.5612H11.2869C10.8791 41.5612 10.5485 41.2306 10.5485 40.8228V9.17724C10.5485 8.76943 10.8791 8.43884 11.2869 8.43884H38.7131C39.1209 8.43884 39.4515 8.76943 39.4515 9.17724V40.8228C39.4515 41.2306 39.1209 41.5612 38.7131 41.5612ZM12.0253 40.0844H37.9747V9.91564H12.0253V40.0844Z" fill="#15403D"/>
<path d="M25 17.2995H17.616C17.2082 17.2995 16.8776 16.969 16.8776 16.5612C16.8776 16.1533 17.2082 15.8228 17.616 15.8228H25C25.4078 15.8228 25.7384 16.1533 25.7384 16.5612C25.7384 16.969 25.4078 17.2995 25 17.2995Z" fill="#15403D"/>
<path d="M29.2194 21.519H21.8354C21.4276 21.519 21.097 21.1884 21.097 20.7806C21.097 20.3728 21.4276 20.0422 21.8354 20.0422H29.2194C29.6272 20.0422 29.9578 20.3728 29.9578 20.7806C29.9578 21.1884 29.6272 21.519 29.2194 21.519Z" fill="#15403D"/>
<path d="M26.0549 25.7384H18.6709C18.2631 25.7384 17.9325 25.4078 17.9325 25C17.9325 24.5922 18.2631 24.2616 18.6709 24.2616H26.0549C26.4627 24.2616 26.7933 24.5922 26.7933 25C26.7933 25.4078 26.4627 25.7384 26.0549 25.7384Z" fill="#15403D"/>
<path d="M30.2743 29.9578H22.8903C22.4825 29.9578 22.1519 29.6272 22.1519 29.2194C22.1519 28.8116 22.4825 28.481 22.8903 28.481H30.2743C30.6821 28.481 31.0127 28.8116 31.0127 29.2194C31.0127 29.6272 30.6821 29.9578 30.2743 29.9578Z" fill="#15403D"/>
<path d="M28.1645 34.1772H20.7806C20.3728 34.1772 20.0422 33.8466 20.0422 33.4388C20.0422 33.031 20.3728 32.7004 20.7806 32.7004H28.1645C28.5723 32.7004 28.9029 33.031 28.9029 33.4388C28.9029 33.8466 28.5723 34.1772 28.1645 34.1772Z" fill="#15403D"/>
</svg>
