<svg width="44" height="44" viewBox="0 0 44 44" fill="none" xmlns="http://www.w3.org/2000/svg">
<path d="M40.2844 0C40.2356 0 40.2356 0 40.1867 0L15.8889 2.10222C13.8356 2.10222 12.2222 3.66667 12.2222 5.62222L11.8311 32.4622C10.56 31.1422 8.8 30.3111 6.84444 30.3111C3.08 30.3111 0 33.3911 0 37.1556C0 40.92 3.08 44 6.84444 44C10.6089 44 13.6889 40.92 13.6889 37.1556C13.6889 37.0578 13.6889 36.96 13.6889 36.8133C13.6889 36.7644 13.6889 36.7156 13.6889 36.6667L14.0311 13.1022L42.0444 10.8533V29.4311C40.8222 28.16 39.0622 27.3778 37.1556 27.3778C33.3911 27.3778 30.3111 30.4578 30.3111 34.2222C30.3111 37.9867 33.3911 41.0667 37.1556 41.0667C40.92 41.0667 44 37.9867 44 34.2222V3.52C44 1.56444 42.3378 0 40.2844 0ZM6.84444 42.0444C4.15556 42.0444 1.95556 39.8444 1.95556 37.1556C1.95556 34.4667 4.15556 32.2667 6.84444 32.2667C9.53333 32.2667 11.7333 34.4667 11.7333 37.1556C11.7333 39.8444 9.53333 42.0444 6.84444 42.0444ZM37.1556 39.1111C34.4667 39.1111 32.2667 36.9111 32.2667 34.2222C32.2667 31.5333 34.4667 29.3333 37.1556 29.3333C39.8444 29.3333 42.0444 31.5333 42.0444 34.2222C42.0444 36.9111 39.8444 39.1111 37.1556 39.1111ZM14.08 11.1467L14.1778 5.62222C14.1778 4.74222 14.96 4.05778 15.9378 4.05778C15.9867 4.05778 15.9867 4.05778 16.0356 4.05778L40.2844 1.95556C41.2622 1.95556 42.0444 2.64 42.0444 3.52V8.89778L14.08 11.1467Z" fill="#15403D"/>
</svg>
