<svg width="50" height="50" viewBox="0 0 50 50" fill="none" xmlns="http://www.w3.org/2000/svg">
<path d="M25 50C21.5517 50 18.307 49.3415 15.2658 48.0244C12.2246 46.7074 9.57854 44.9234 7.32759 42.6724C5.07663 40.4215 3.29262 37.7754 1.97557 34.7342C0.658525 31.693 0 28.4483 0 25C0 21.5517 0.658525 18.307 1.97557 15.2658C3.29262 12.2246 5.07663 9.57854 7.32759 7.32759C9.57854 5.07663 12.2246 3.29262 15.2658 1.97557C18.307 0.658525 21.5517 0 25 0C28.4483 0 31.693 0.658525 34.7342 1.97557C37.7754 3.29262 40.4215 5.07663 42.6724 7.32759C44.9234 9.57854 46.7074 12.2246 48.0244 15.2658C49.3415 18.307 50 21.5517 50 25C50 28.4483 49.3415 31.693 48.0244 34.7342C46.7074 37.7754 44.9234 40.4215 42.6724 42.6724C40.4215 44.9234 37.7754 46.7074 34.7342 48.0244C31.693 49.3415 28.4483 50 25 50ZM25 48.0603C26.8199 45.7615 28.3046 43.5345 29.454 41.3793C30.6034 39.2241 31.5374 36.7816 32.2557 34.0517H17.7443C18.5584 36.9732 19.5163 39.5115 20.6178 41.6667C21.7193 43.8218 23.1801 45.9531 25 48.0603ZM22.4856 47.8448C21.001 46.2644 19.636 44.217 18.3908 41.7026C17.1456 39.1882 16.2356 36.6379 15.6609 34.0517H3.87931C5.60345 37.9789 8.11782 41.1638 11.4224 43.6063C14.727 46.0488 18.4148 47.4617 22.4856 47.8448ZM27.5144 47.8448C31.5852 47.4617 35.273 46.0488 38.5776 43.6063C41.8822 41.1638 44.3966 37.9789 46.1207 34.0517H34.3391C33.5249 36.6858 32.4952 39.2601 31.25 41.7744C30.0048 44.2888 28.7596 46.3123 27.5144 47.8448ZM3.08908 32.0402H15.2299C14.9904 30.795 14.8228 29.5857 14.727 28.4124C14.6312 27.239 14.5833 26.1015 14.5833 25C14.5833 23.8985 14.6312 22.761 14.727 21.5876C14.8228 20.4143 14.9904 19.205 15.2299 17.9598H3.08908C2.75383 18.9655 2.49042 20.091 2.29885 21.3362C2.10728 22.5814 2.01149 23.8027 2.01149 25C2.01149 26.1973 2.10728 27.4186 2.29885 28.6638C2.49042 29.909 2.75383 31.0345 3.08908 32.0402ZM17.2414 32.0402H32.7586C32.9981 30.795 33.1657 29.6097 33.2615 28.4842C33.3573 27.3587 33.4052 26.1973 33.4052 25C33.4052 23.8027 33.3573 22.6413 33.2615 21.5158C33.1657 20.3903 32.9981 19.205 32.7586 17.9598H17.2414C17.0019 19.205 16.8343 20.3903 16.7385 21.5158C16.6427 22.6413 16.5948 23.8027 16.5948 25C16.5948 26.1973 16.6427 27.3587 16.7385 28.4842C16.8343 29.6097 17.0019 30.795 17.2414 32.0402ZM34.7701 32.0402H46.9109C47.2462 31.0345 47.5096 29.909 47.7011 28.6638C47.8927 27.4186 47.9885 26.1973 47.9885 25C47.9885 23.8027 47.8927 22.5814 47.7011 21.3362C47.5096 20.091 47.2462 18.9655 46.9109 17.9598H34.7701C35.0096 19.205 35.1772 20.4143 35.273 21.5876C35.3688 22.761 35.4167 23.8985 35.4167 25C35.4167 26.1015 35.3688 27.239 35.273 28.4124C35.1772 29.5857 35.0096 30.795 34.7701 32.0402ZM34.3391 15.9483H46.1207C44.3487 11.9253 41.8702 8.74042 38.6853 6.39368C35.5005 4.04693 31.7768 2.61015 27.5144 2.08333C28.999 3.90326 30.34 6.03448 31.5374 8.47701C32.7347 10.9195 33.6686 13.41 34.3391 15.9483ZM17.7443 15.9483H32.2557C31.4416 13.0747 30.4478 10.5005 29.2744 8.22557C28.1011 5.95067 26.6762 3.85536 25 1.93966C23.3238 3.85536 21.8989 5.95067 20.7256 8.22557C19.5522 10.5005 18.5584 13.0747 17.7443 15.9483ZM3.87931 15.9483H15.6609C16.3314 13.41 17.2653 10.9195 18.4626 8.47701C19.66 6.03448 21.001 3.90326 22.4856 2.08333C18.1753 2.61015 14.4397 4.05891 11.2787 6.4296C8.11782 8.80029 5.65134 11.9732 3.87931 15.9483Z" fill="#15403D"/>
</svg>
