<svg width="89" height="100" viewBox="0 0 89 100" fill="none" xmlns="http://www.w3.org/2000/svg">
<g clip-path="url(#clip0_844_627)">
<path d="M78.661 16.4586L62.4293 0.340524C62.2023 0.113508 61.8618 0 61.5213 0H1.36209C0.681047 0 0 0.56754 0 1.36209V98.2978C0 98.9789 0.567539 99.6599 1.36209 99.6599H45.6302C46.3112 99.6599 46.9923 99.0924 46.9923 98.2978C46.9923 97.6168 46.4247 96.9357 45.6302 96.9357H2.72419V2.61068H60.1592V18.8423H76.3908V59.0241C76.3908 59.7052 76.9583 60.3862 77.7529 60.3862C78.5475 60.3862 79.115 59.8187 79.115 59.0241V17.4802C79.0015 17.1397 78.888 16.7992 78.661 16.4586ZM62.8834 4.42681L74.5747 16.1181H62.8834V4.42681Z" fill="#4F4754"/>
<path d="M68.8716 100C58.1249 100 49.4163 91.2914 49.4163 80.5447C49.4163 69.798 58.1249 61.0895 68.8716 61.0895C79.6183 61.0895 88.3268 69.798 88.3268 80.5447C88.3268 91.2914 79.5256 100 68.8716 100ZM68.8716 63.2203C59.3292 63.2203 51.5471 71.0024 51.5471 80.5447C51.5471 90.0871 59.3292 97.8692 68.8716 97.8692C78.4139 97.8692 86.196 90.0871 86.196 80.5447C86.1034 71.0024 78.3213 63.2203 68.8716 63.2203Z" fill="#4F4754"/>
<path d="M66.4022 29.3985H12.7129C12.0319 29.3985 11.3508 28.831 11.3508 28.0364C11.3508 27.3554 11.9184 26.6743 12.7129 26.6743H66.4022C67.0832 26.6743 67.7643 27.2419 67.7643 28.0364C67.7643 28.831 67.0832 29.3985 66.4022 29.3985Z" fill="#4F4754"/>
<path d="M66.4022 49.3759H12.7129C12.0319 49.3759 11.3508 48.8084 11.3508 48.0138C11.3508 47.2192 11.9184 46.6517 12.7129 46.6517H66.4022C67.0832 46.6517 67.7643 47.2192 67.7643 48.0138C67.7643 48.8084 67.0832 49.3759 66.4022 49.3759Z" fill="#4F4754"/>
<path d="M55.0175 59.3646H12.4312C11.891 59.3646 11.3508 58.7971 11.3508 58.0025C11.3508 57.208 11.801 56.6404 12.4312 56.6404H55.0175C55.5577 56.6404 56.0979 57.208 56.0979 58.0025C56.0979 58.7971 55.5577 59.3646 55.0175 59.3646Z" fill="#4F4754"/>
<path d="M66.4022 39.3872H12.7129C12.0319 39.3872 11.3508 38.8197 11.3508 38.0251C11.3508 37.2306 11.9184 36.663 12.7129 36.663H66.4022C67.0832 36.663 67.7643 37.2306 67.7643 38.0251C67.7643 38.8197 67.0832 39.3872 66.4022 39.3872Z" fill="#4F4754"/>
<path d="M45.1696 69.3533H12.5515C11.9512 69.3533 11.3508 68.7858 11.3508 67.9912C11.3508 67.3102 11.8511 66.6291 12.5515 66.6291H45.1696C45.77 66.6291 46.3703 67.1967 46.3703 67.9912C46.3703 68.7858 45.87 69.3533 45.1696 69.3533Z" fill="#4F4754"/>
<path d="M39.5008 79.342H12.7129C12.0319 79.342 11.3508 78.7745 11.3508 77.9799C11.3508 77.2989 11.9184 76.6178 12.7129 76.6178H39.5008C40.1818 76.6178 40.8629 77.1854 40.8629 77.9799C40.8629 78.7745 40.2953 79.342 39.5008 79.342Z" fill="#4F4754"/>
<path d="M75.3143 82.8002C74.7468 82.2326 73.9522 82.2326 73.3847 82.8002L70.2064 85.9784V73.152C70.2064 72.3574 69.6389 71.7899 68.8443 71.7899C68.0498 71.7899 67.5958 72.3574 67.5958 73.152V85.9784L64.4175 82.8002C63.85 82.2326 63.0554 82.2326 62.4879 82.8002C61.9204 83.3677 61.9204 84.1622 62.4879 84.7298L67.9363 90.1782C68.1633 90.4052 68.5038 90.5187 68.8443 90.5187C69.1849 90.5187 69.5254 90.4052 69.7524 90.1782L75.2008 84.7298C75.8818 84.1622 75.8818 83.3677 75.3143 82.8002Z" fill="#4F4754"/>
</g>
<defs>
<clipPath id="clip0_844_627">
<rect width="89" height="100" fill="white"/>
</clipPath>
</defs>
</svg>
