<svg width="100" height="100" viewBox="0 0 100 100" fill="none" xmlns="http://www.w3.org/2000/svg">
<g clip-path="url(#clip0_4_19)">
<path d="M88.7442 53.9958H90.0079C90.6965 53.9958 91.2531 53.4392 91.2531 52.7507C91.2531 52.0621 90.6965 51.5056 90.0079 51.5056H3.90347C3.49009 51.5056 3.10286 51.711 2.87251 52.0522C2.61353 52.4357 -3.40783 61.5723 2.79781 73.5627C3.01072 73.9761 3.43779 74.2351 3.90347 74.2351H90.0079C90.6965 74.2351 91.2531 73.6785 91.2531 72.99C91.2531 72.3014 90.6965 71.7449 90.0079 71.7449H88.8176C86.305 62.8859 88.1228 55.9245 88.7442 53.9958ZM4.67295 71.7461C0.410926 62.8784 3.52246 55.9543 4.60695 53.9958H86.1356C85.3288 56.8147 84.0389 63.4151 86.239 71.7461H4.67295Z" fill="#824ACF"/>
<path d="M97.1202 79.762H98.384C99.0726 79.762 99.6291 79.2054 99.6291 78.5168C99.6291 77.8283 99.0726 77.2717 98.384 77.2717H12.2796C11.8662 77.2717 11.4789 77.4772 11.2486 77.8183C10.9896 78.2018 4.97075 87.3385 11.1739 99.3276C11.3868 99.741 11.8139 100 12.2796 100H98.384C99.0726 100 99.6291 99.4434 99.6291 98.7549C99.6291 98.0663 99.0726 97.5098 98.384 97.5098H97.1949C94.6823 88.6521 96.4989 81.6919 97.1202 79.762ZM13.049 97.511C8.78826 88.6446 11.8986 81.7205 12.983 79.762H94.513C93.7061 82.5809 92.4162 89.1812 94.6163 97.511H13.049Z" fill="#824ACF"/>
<path d="M88.7431 2.49022H90.0081C90.6967 2.49022 91.2532 1.93366 91.2532 1.24511C91.2532 0.556565 90.6967 0 90.0081 0H3.90114C3.48776 0 3.10053 0.205444 2.87019 0.546604C2.6112 0.930099 -3.40767 10.0667 2.79548 22.0559C3.00839 22.4693 3.43547 22.7283 3.90114 22.7283H20.9791V25.3704H12.2795C11.8661 25.3704 11.4789 25.5758 11.2485 25.917C10.9896 26.3005 4.97069 35.4371 11.1738 47.4276C11.3868 47.8409 11.8138 48.0999 12.2795 48.0999H98.384C99.0725 48.0999 99.6291 47.5434 99.6291 46.8548C99.6291 46.1663 99.0725 45.6097 98.384 45.6097H97.1949C94.681 36.7507 96.4976 29.7893 97.1202 27.8594H98.384C99.0725 27.8594 99.6291 27.3028 99.6291 26.6143C99.6291 25.9257 99.0725 25.3692 98.384 25.3692H40.2783V22.727H90.0069C90.6954 22.727 91.252 22.1705 91.252 21.4819C91.252 20.7934 90.6954 20.2368 90.0069 20.2368H88.8165C86.3039 11.3803 88.1205 4.42015 88.7431 2.49022ZM23.4693 2.49022H37.7881V36.8267L31.2637 32.9606C30.8728 32.729 30.3859 32.729 29.9937 32.9606L23.4693 36.8267V2.49022ZM4.67062 20.2393C0.409846 11.3729 3.52013 4.44878 4.60463 2.49022H20.9778V20.2393H4.67062ZM94.5129 27.8619C93.7061 30.6808 92.4162 37.2811 94.6163 45.6122H13.049C8.7882 36.7445 11.8997 29.8204 12.983 27.8619H20.9791V39.0118C20.9791 39.4588 21.2182 39.8722 21.6079 40.0938C21.9976 40.3155 22.4732 40.3105 22.8592 40.0826L30.6287 35.4782L38.3982 40.0826C38.5937 40.1984 38.8128 40.257 39.0332 40.257C39.2461 40.257 39.459 40.2022 39.6495 40.0938C40.038 39.8722 40.2783 39.4588 40.2783 39.0118V27.8619H94.5129ZM40.2783 20.2393V2.49022H86.1358C85.329 5.30916 84.039 11.9095 86.2392 20.2393H40.2783Z" fill="#824ACF"/>
</g>
<defs>
<clipPath id="clip0_4_19">
<rect width="100" height="100" fill="white"/>
</clipPath>
</defs>
</svg>
