<svg width="102" height="100" viewBox="0 0 102 100" fill="none" xmlns="http://www.w3.org/2000/svg">
<path d="M52.1735 79.503C43.6177 79.503 36.6572 72.5425 36.6572 63.9869C36.6572 58.7282 41.1035 53.3402 45.4034 48.1296C47.5065 45.581 49.6815 42.9452 51.2645 40.4085C51.4727 40.075 51.8377 39.8726 52.2306 39.8726C52.2302 39.8726 52.2311 39.8726 52.2306 39.8726C52.624 39.8729 52.9901 40.0762 53.1979 40.4102C54.732 42.879 56.8595 45.4915 58.9167 48.0179C63.2227 53.3056 67.6754 58.7732 67.6754 63.9869C67.6754 72.5427 60.7211 79.503 52.1735 79.503ZM52.2286 43.0831C50.7202 45.2646 48.9156 47.4515 47.1599 49.579C43.1161 54.4794 38.9347 59.5467 38.9347 63.9869C38.9347 71.2867 44.8736 77.2256 52.1735 77.2256C59.4656 77.2256 65.3978 71.2867 65.3978 63.9869C65.3978 59.5834 61.2054 54.435 57.1506 49.4559C55.4441 47.3604 53.6902 45.2064 52.2286 43.0831Z" fill="#4F4754"/>
<path d="M14.8034 44.0401C14.1746 44.0401 13.6647 43.5301 13.6647 42.9014V26.1132C13.6647 25.4844 14.1746 24.9745 14.8034 24.9745C15.4322 24.9745 15.9421 25.4844 15.9421 26.1132V42.9014C15.9421 43.5301 15.4322 44.0401 14.8034 44.0401Z" fill="#4F4754"/>
<path d="M85.4039 44.0401C84.7749 44.0401 84.2651 43.5301 84.2651 42.9014V26.1132C84.2651 25.4844 84.7749 24.9745 85.4039 24.9745C86.0329 24.9745 86.5426 25.4844 86.5426 26.1132V42.9014C86.5426 43.5301 86.0329 44.0401 85.4039 44.0401Z" fill="#4F4754"/>
<path d="M99.0688 35.6462H85.4039C84.7749 35.6462 84.2651 35.1363 84.2651 34.5074C84.2651 33.8787 84.7749 33.3687 85.4039 33.3687H99.0688C99.6978 33.3687 100.208 33.8787 100.208 34.5074C100.208 35.1363 99.6978 35.6462 99.0688 35.6462Z" fill="#4F4754"/>
<path d="M14.8034 35.6462H1.13872C0.509919 35.6462 0 35.1363 0 34.5074C0 33.8787 0.509919 33.3687 1.13872 33.3687H14.8034C15.4321 33.3687 15.9421 33.8787 15.9421 34.5074C15.9421 35.1363 15.4321 35.6462 14.8034 35.6462Z" fill="#4F4754"/>
<path d="M85.4041 90.8902H14.8034C14.1746 90.8902 13.6647 90.3805 13.6647 89.7515C13.6647 89.1225 14.1746 88.6127 14.8034 88.6127H85.4041C86.0331 88.6127 86.5429 89.1225 86.5429 89.7515C86.5429 90.3805 86.0331 90.8902 85.4041 90.8902Z" fill="#4F4754"/>
<path d="M52.3813 22.567C40.6499 22.567 30.0113 15.6279 25.2783 4.8886C25.0246 4.31309 25.2856 3.64079 25.8611 3.38731C26.4364 3.1336 27.1086 3.3946 27.3624 3.97011C31.7314 13.8838 41.552 20.2895 52.3813 20.2895C62.7869 20.2895 72.4458 14.2353 76.9879 4.86491C77.262 4.2992 77.9436 4.06258 78.5091 4.337C79.0751 4.61121 79.3115 5.29239 79.0371 5.85834C76.6463 10.7906 72.9371 14.9615 68.3105 17.9201C63.5571 20.9603 58.0491 22.567 52.3813 22.567Z" fill="#4F4754"/>
<path d="M85.404 100H14.8034C14.1746 100 13.6646 99.4902 13.6646 98.8612V44.0401H1.13872C0.509919 44.0401 0 43.5301 0 42.9014V21.2071C0 16.9433 2.50815 13.048 6.38981 11.2834C6.40416 11.2768 6.41851 11.2707 6.43309 11.2647L32.3404 0.759353C33.0594 0.43459 33.82 0.18726 34.6021 0.0239671C35.1206 -0.083528 35.6434 0.17815 35.8667 0.656867C38.8515 7.04919 45.3339 11.1798 52.3811 11.1798C59.3019 11.1798 65.5384 7.33455 68.6578 1.1447C68.9248 0.614507 69.5544 0.379249 70.1043 0.602438C70.3675 0.709705 70.6075 0.817427 70.8369 0.9313L93.9349 11.1825C93.9509 11.1896 93.9665 11.1971 93.9822 11.2048C97.8801 13.1536 100.207 16.635 100.207 20.5172V42.9014C100.207 43.5301 99.6977 44.0401 99.0687 44.0401H86.5427V98.8612C86.5427 99.4902 86.0331 100 85.404 100ZM15.9421 97.7225H84.2654V42.9014C84.2654 42.2725 84.775 41.7626 85.404 41.7626H97.93V20.5172C97.93 17.479 96.1282 14.8326 92.9864 13.2531L70.1761 3.12971C66.5245 9.5275 59.8024 13.4573 52.3811 13.4573C44.7706 13.4573 37.7465 9.17633 34.2261 2.47335C33.8956 2.57744 33.5731 2.70087 33.2609 2.84276C33.2465 2.84936 33.2323 2.85551 33.2176 2.86142L7.3115 13.3661C4.25266 14.7665 2.27744 17.8415 2.27744 21.2071V41.7626H14.8034C15.4321 41.7626 15.9421 42.2725 15.9421 42.9014V97.7225Z" fill="#4F4754"/>
<path d="M53.5199 65.1255H37.796C37.1671 65.1255 36.6572 64.6159 36.6572 63.9868C36.6572 63.3578 37.1671 62.8481 37.796 62.8481H53.5199C54.1489 62.8481 54.6586 63.3578 54.6586 63.9868C54.6586 64.6159 54.1489 65.1255 53.5199 65.1255Z" fill="#4F4754"/>
</svg>
