<svg width="99" height="100" viewBox="0 0 99 100" fill="none" xmlns="http://www.w3.org/2000/svg">
<g clip-path="url(#clip0_844_592)">
<path d="M91.5778 45.5288C91.4523 46.9094 91.3268 48.1644 91.2013 49.4196C97.9788 60.3389 97.4768 74.0195 89.9461 84.4368C89.6951 84.8133 89.6951 85.3154 89.8206 85.6919L94.2135 95.7326L84.1727 91.3399C83.7962 91.2144 83.2941 91.2144 82.9176 91.4654C71.8728 99.498 57.1881 99.498 46.1432 91.5909C44.6372 91.7164 43.3821 91.7164 42.2524 91.7164C48.4024 97.1133 56.3096 100 64.4677 100C71.2452 100 77.8971 97.9919 83.5451 94.101L83.7961 93.85L96.0961 99.247C96.5981 99.498 97.1003 99.3725 97.4768 98.9959C97.8533 98.6194 97.9788 98.1174 97.7278 97.6154L92.3309 85.3154L92.5819 85.0644C100.865 72.8899 100.489 57.2012 91.5778 45.5288Z" fill="#4F4754"/>
<path d="M41.3738 85.4408C41.8758 85.4408 42.2524 85.4408 42.7544 85.4408C54.0503 85.4408 64.8442 80.9224 72.8768 72.8898C80.6584 65.1082 85.0513 54.8164 85.3023 43.8971C85.3023 42.1399 85.3023 40.5083 85.1768 38.8766C84.2981 28.9613 79.9053 19.5481 72.8768 12.5196C56.1839 -4.1732 29.1993 -4.1732 12.5066 12.5196C-2.05253 27.2042 -4.1862 50.0471 7.61172 66.9908L7.86274 67.2418L0.959706 82.9305C0.708687 83.4326 0.834196 83.9346 1.21072 84.3111C1.58725 84.6876 2.08929 84.8131 2.59133 84.5621L18.2801 77.6592L18.5311 77.9102C23.8025 81.5499 29.576 83.9346 35.8515 84.9388C37.4831 85.1898 39.1147 85.3153 40.8718 85.4408H41.3738ZM33.0902 81.801C28.0698 80.5459 23.3005 78.2867 19.1586 75.2744C18.7821 75.0234 18.2801 75.0234 17.9035 75.1489L4.47398 81.0479L10.3729 67.6184C10.4984 67.2418 10.4984 66.7398 10.2474 66.3633C-1.42499 50.2981 0.206648 28.4593 14.2637 14.2767C21.7943 6.74615 31.9606 2.47882 42.6289 2.47882C53.4228 2.47882 63.4635 6.62064 70.9942 14.2767C76.893 20.1757 80.7839 27.5807 82.1645 35.8645C82.4155 37.4961 82.6665 39.1277 82.6665 40.7593C83.1685 52.0552 78.9013 63.1 70.9942 71.1327C63.338 78.7888 53.1718 82.9305 42.6289 82.9305C40.9973 82.9305 39.3657 82.805 37.7341 82.6795C36.3535 82.4285 34.7218 82.1775 33.0902 81.801Z" fill="#4F4754"/>
</g>
<defs>
<clipPath id="clip0_844_592">
<rect width="99" height="100" fill="white"/>
</clipPath>
</defs>
</svg>
