<svg width="101" height="100" viewBox="0 0 101 100" fill="none" xmlns="http://www.w3.org/2000/svg">
<g clip-path="url(#clip0_4_17)">
<path d="M40.0198 57.2629L22.5296 67.3666C21.8626 67.7619 21.0474 67.2677 21.0474 66.5266V46.3191C21.0474 45.6028 21.838 45.0346 22.6038 45.504L40.0198 55.5583C40.662 55.9535 40.662 56.8922 40.0198 57.2629ZM22.999 64.8221L37.5248 56.4229L22.999 48.0237V64.8221ZM84.8567 84.832C86.1412 84.832 86.1412 86.8083 84.8567 86.8083H16.6255C15.3162 86.8083 15.3162 84.832 16.6255 84.832H84.8567ZM91.0573 75.8646C92.3666 75.8646 92.3666 77.8409 91.0573 77.8409H57.8064C56.497 77.8409 56.497 75.8646 57.8064 75.8646H91.0573ZM91.0573 66.8725C92.3666 66.8725 92.3666 68.8489 91.0573 68.8489H57.8064C56.497 68.8489 56.497 66.8725 57.8064 66.8725H91.0573ZM91.0573 57.9051C92.3666 57.9051 92.3666 59.8814 91.0573 59.8814H57.8064C56.497 59.8814 56.497 57.9051 57.8064 57.9051H91.0573ZM45.084 37.6483H16.4526C13.8834 37.6483 11.7589 39.7728 11.7589 42.3419V70.504C11.7589 73.0979 13.8834 75.1976 16.4526 75.1976H45.084C47.6531 75.1976 49.7776 73.0979 49.7776 70.504V42.3419C49.7776 39.748 47.6531 37.6483 45.084 37.6483ZM16.4526 35.6719H45.084C48.7649 35.6719 51.754 38.6611 51.754 42.3419V70.504C51.754 74.1847 48.7649 77.1739 45.084 77.1739H16.4526C12.7717 77.1739 9.78261 74.1601 9.78261 70.504V42.3419C9.78261 38.6611 12.7717 35.6719 16.4526 35.6719ZM88.4634 37.5248H59.7826C59.2391 37.5248 58.7945 37.9694 58.7945 38.5129V47.9003C58.7945 48.4436 59.2391 48.8884 59.7826 48.8884H88.4634C89.0069 48.8884 89.4516 48.4436 89.4516 47.9003V38.5129C89.4516 37.9694 89.0069 37.5248 88.4634 37.5248ZM59.7826 35.5484H88.4634C90.0939 35.5484 91.4279 36.8824 91.4279 38.5129V47.9003C91.4279 49.5306 90.0939 50.8646 88.4634 50.8646H59.7826C58.1521 50.8646 56.8183 49.5306 56.8183 47.9003V38.5129C56.8183 36.8824 58.1521 35.5484 59.7826 35.5484ZM1.95157 23.5672H98.7895V9.36265C98.7895 5.31126 95.4545 1.97629 91.4031 1.97629H9.36265C5.31126 1.97629 1.97629 5.31126 1.97629 9.36265V23.5672H1.95157ZM98.8142 25.5435H1.97629V90.6374C1.97629 94.6888 5.31126 98.0237 9.36265 98.0237H91.4279C95.4793 98.0237 98.8142 94.6888 98.8142 90.6374V25.5435ZM61.4377 8.81917H88.3646C90.4398 8.81917 92.1443 10.5237 92.1443 12.5989C92.1443 13.9575 92.1443 14.995 91.0326 16.1067C90.3409 16.7984 89.4021 17.2184 88.3646 17.2184H61.4377C59.3626 17.2184 57.6581 15.5139 57.6581 13.4388C57.6581 12.08 57.6581 11.0425 58.7698 9.93084C59.4368 9.23914 60.4002 8.81917 61.4377 8.81917ZM88.3646 10.7955H61.4377C60.4496 10.7955 59.6344 11.6107 59.6344 12.5989C59.6344 13.414 59.5356 14.081 60.1779 14.7234C60.499 15.0445 60.9684 15.2667 61.4625 15.2667H88.3894C89.3775 15.2667 90.1926 14.4516 90.1926 13.4635C90.1926 12.6482 90.2915 11.9812 89.6492 11.3389C89.3281 10.9931 88.8834 10.7955 88.3646 10.7955ZM39.4021 8.81917C43.1324 8.81917 45.0099 13.3646 42.3666 16.0079C39.7234 18.6511 35.1779 16.7738 35.1779 13.0435C35.2026 10.6966 37.1047 8.81917 39.4021 8.81917ZM40.9832 11.4377C39.5751 10.0296 37.1789 11.0425 37.1789 13.0187C37.1789 14.995 39.5751 15.9832 40.9832 14.5998C41.8479 13.7105 41.8479 12.3024 40.9832 11.4377ZM26.1116 8.81917C29.8419 8.81917 31.7194 13.3646 29.0761 16.0079C26.4328 18.6511 21.8874 16.7738 21.8874 13.0435C21.912 10.6966 23.7895 8.81917 26.1116 8.81917ZM27.6927 11.4377C26.2846 10.0296 23.8884 11.0425 23.8884 13.0187C23.8884 14.995 26.2846 15.9832 27.6927 14.5998C28.5574 13.7105 28.5574 12.3024 27.6927 11.4377ZM12.8211 8.81917C16.5514 8.81917 18.4289 13.3646 15.7856 16.0079C13.1422 18.6511 8.59684 16.7738 8.59684 13.0435C8.59684 10.6966 10.499 8.81917 12.8211 8.81917ZM14.4021 11.4377C12.9941 10.0296 10.5978 11.0425 10.5978 13.0187C10.5978 14.995 13.0187 15.9832 14.4021 14.5998C15.2667 13.7105 15.2667 12.3024 14.4021 11.4377ZM9.36265 0H91.4279C96.5663 0 100.791 4.1996 100.791 9.36265V90.6374C100.791 95.7758 96.5663 100 91.4279 100H9.36265C4.1996 100 0 95.7758 0 90.6374V9.36265C0 4.1996 4.1996 0 9.36265 0Z" fill="#824ACF"/>
</g>
<defs>
<clipPath id="clip0_4_17">
<rect width="101" height="100" fill="white"/>
</clipPath>
</defs>
</svg>
