<svg width="13" height="20" viewBox="0 0 13 20" fill="none" xmlns="http://www.w3.org/2000/svg">
<path d="M7.66307 1.29063C8.26201 1.51928 8.80509 1.87345 9.25583 2.32936C9.70656 2.78527 10.0545 3.33236 10.2763 3.93388C10.3428 4.09202 10.4677 4.21843 10.6251 4.28681C10.7824 4.3552 10.96 4.3603 11.121 4.30105C11.282 4.24181 11.414 4.12277 11.4895 3.96871C11.565 3.81465 11.5781 3.63742 11.5263 3.47389C11.2392 2.69367 10.7884 1.98393 10.2043 1.39234C9.62018 0.800745 8.91622 0.341008 8.13972 0.0440087C7.9744 -0.0191991 7.79075 -0.0141479 7.62916 0.0580512C7.46758 0.13025 7.34129 0.263683 7.27808 0.428996C7.21487 0.594308 7.21992 0.777959 7.29212 0.939548C7.36432 1.10114 7.49775 1.22743 7.66307 1.29063Z" fill="#15403D"/>
<path d="M5.9498 14.5268H6.1698C7.13588 14.5224 8.06119 14.137 8.74464 13.4541C9.42808 12.7713 9.81441 11.8464 9.81967 10.8803V5.38047C9.81529 4.41381 9.42934 3.488 8.7458 2.80446C8.06227 2.12092 7.13645 1.73497 6.1698 1.73059H5.9498C4.98315 1.73497 4.05733 2.12092 3.37379 2.80446C2.69026 3.488 2.30431 4.41381 2.29993 5.38047V10.8803C2.30519 11.8464 2.69152 12.7713 3.37496 13.4541C4.05841 14.137 4.98372 14.5224 5.9498 14.5268ZM3.63321 5.38047C3.63758 4.76742 3.88305 4.18072 4.31655 3.74721C4.75005 3.31371 5.33675 3.06824 5.9498 3.06388H6.1698C6.78285 3.06824 7.36955 3.31371 7.80305 3.74721C8.23655 4.18072 8.48202 4.76742 8.48638 5.38047V10.8803C8.48202 11.4933 8.23655 12.08 7.80305 12.5135C7.36955 12.947 6.78285 13.1925 6.1698 13.1969H5.9498C5.33675 13.1925 4.75005 12.947 4.31655 12.5135C3.88305 12.08 3.63758 11.4933 3.63321 10.8803V5.38047Z" fill="#15403D"/>
<path d="M11.4496 8.39038C11.2728 8.39038 11.1032 8.46062 10.9782 8.58564C10.8532 8.71066 10.783 8.88022 10.783 9.05702V11.0003C10.7997 11.6313 10.6899 12.2593 10.46 12.8472C10.2301 13.4351 9.88476 13.971 9.44436 14.4233C9.00396 14.8755 8.47742 15.235 7.89584 15.4804C7.31425 15.7259 6.68939 15.8523 6.05813 15.8523C5.42687 15.8523 4.80201 15.7259 4.22042 15.4804C3.63883 15.235 3.1123 14.8755 2.6719 14.4233C2.2315 13.971 1.88616 13.4351 1.65625 12.8472C1.42634 12.2593 1.31653 11.6313 1.33329 11.0003V9.05702C1.33329 8.88022 1.26305 8.71066 1.13803 8.58564C1.01301 8.46062 0.843449 8.39038 0.666644 8.39038C0.489839 8.39038 0.320276 8.46062 0.195256 8.58564C0.0702356 8.71066 0 8.88022 0 9.05702V11.0003C0.00143845 12.4916 0.552159 13.9302 1.54699 15.0412C2.54181 16.1522 3.91103 16.8579 5.39315 17.0234V19.3333C5.39315 19.5101 5.46339 19.6797 5.58841 19.8047C5.71343 19.9298 5.88299 20 6.05979 20C6.2366 20 6.40616 19.9298 6.53118 19.8047C6.6562 19.6797 6.72644 19.5101 6.72644 19.3333V17.0234C8.20796 16.8571 9.57637 16.1511 10.5705 15.0402C11.5647 13.9292 12.1149 12.4911 12.1163 11.0003V9.05702C12.1163 8.88022 12.046 8.71066 11.921 8.58564C11.796 8.46062 11.6264 8.39038 11.4496 8.39038Z" fill="#15403D"/>
</svg>
