<svg width="50" height="44" viewBox="0 0 50 44" fill="none" xmlns="http://www.w3.org/2000/svg">
<path d="M26.1477 35.1491H4.36504C3.16769 35.1491 2.07604 34.6585 1.28569 33.8681C0.492191 33.073 0 31.983 0 30.7856V7.36236C0 6.16501 0.490614 5.07336 1.28096 4.28301C2.07604 3.48951 3.16611 2.99732 4.36346 2.99732H8.55656V1.05222C8.55656 0.471684 9.02666 0 9.60877 0C10.1893 0 10.661 0.470106 10.661 1.05222V2.99732H19.8754V1.05222C19.8754 0.471684 20.3455 0 20.9276 0C21.5081 0 21.9798 0.470106 21.9798 1.05222V2.99732H31.1942V1.05222C31.1942 0.471684 31.6643 0 32.2464 0C32.8269 0 33.2986 0.470106 33.2986 1.05222V2.99732H37.4917C38.6891 2.99732 39.7791 3.48793 40.5711 4.27828C41.3661 5.07336 41.8568 6.16501 41.8568 7.36236V19.1828C43.5747 19.8028 45.1175 20.7951 46.3859 22.0634L46.3922 22.0697C48.6212 24.3019 50 27.3813 50 30.7761C50 34.1789 48.6212 37.2598 46.3906 39.4905C44.1615 41.7195 41.079 43.0999 37.6763 43.0999C34.2783 43.0999 31.1974 41.7195 28.9651 39.4873C27.7425 38.2679 26.7771 36.7929 26.1524 35.1475L26.1477 35.1491ZM36.6209 23.906C36.6209 23.3254 37.091 22.8538 37.6731 22.8538C38.2537 22.8538 38.7254 23.3239 38.7254 23.906V28.0628L40.0268 26.6335C40.4165 26.2045 41.0806 26.1745 41.5097 26.5641C41.9388 26.9538 41.9688 27.6179 41.5791 28.047L38.4935 31.4356C38.301 31.6753 38.006 31.8284 37.6747 31.8284C37.0942 31.8284 36.6225 31.3583 36.6225 30.7761V23.9044L36.6209 23.906ZM40.5584 20.9686C40.5269 20.9607 40.4953 20.9528 40.4654 20.9418C39.5772 20.691 38.6402 20.5569 37.6731 20.5569C34.8478 20.5569 32.2922 21.699 30.4464 23.5463C28.596 25.3968 27.4523 27.9524 27.4523 30.7777C27.4523 33.5999 28.5976 36.1555 30.4449 38.0044C32.2906 39.8549 34.8462 40.9986 37.6716 40.9986C40.4938 40.9986 43.0494 39.8533 44.8983 38.006C46.7471 36.1571 47.8924 33.5999 47.8924 30.7793C47.8924 27.9539 46.7503 25.3983 44.9014 23.5495C43.7088 22.3568 42.2227 21.4592 40.5584 20.9702V20.9686ZM39.7508 18.6291V7.36236C39.7508 6.74081 39.4968 6.1729 39.0882 5.76432C38.6796 5.35573 38.1117 5.10175 37.4901 5.10175H33.2971V6.84493C33.2971 7.42546 32.8269 7.89715 32.2448 7.89715C31.6643 7.89715 31.1926 7.42704 31.1926 6.84493V5.10175H21.9782V6.84493C21.9782 7.42546 21.5081 7.89715 20.926 7.89715C20.3455 7.89715 19.8738 7.42704 19.8738 6.84493V5.10175H10.6594V6.84493C10.6594 7.42546 10.1893 7.89715 9.60719 7.89715C9.02666 7.89715 8.55498 7.42704 8.55498 6.84493V5.10175H4.36189C3.74034 5.10175 3.17242 5.35573 2.76384 5.76432C2.35526 6.1729 2.10128 6.74081 2.10128 7.36236V30.7856C2.10128 31.4072 2.35526 31.9751 2.76384 32.3837C3.17242 32.7922 3.74034 33.0462 4.36189 33.0462H25.5545C25.4173 32.3111 25.3463 31.5523 25.3463 30.7777C25.3463 27.3797 26.725 24.3004 28.9557 22.0682L28.962 22.0618C31.1942 19.8328 34.2735 18.454 37.6684 18.454C38.3767 18.454 39.0708 18.514 39.746 18.6291H39.7508Z" fill="#15403D"/>
</svg>
