<svg width="16" height="16" viewBox="0 0 16 16" fill="none" xmlns="http://www.w3.org/2000/svg">
<path d="M15.5781 6.73591C15.3595 7.05022 15.0254 7.26516 14.6487 7.33374C14.2721 7.40233 13.8836 7.31896 13.5682 7.10189L7.93026 3.19883L2.29228 7.10189C2.13662 7.21485 1.95997 7.29558 1.77269 7.33933C1.5854 7.38309 1.39127 7.389 1.20167 7.35671C1.01207 7.32442 0.830834 7.25459 0.668593 7.15131C0.506352 7.04802 0.366376 6.91337 0.256882 6.75526C0.147387 6.59714 0.0705782 6.41875 0.0309645 6.23054C-0.00864924 6.04234 -0.0102703 5.84812 0.0261965 5.65928C0.0626633 5.47044 0.136483 5.29079 0.243324 5.13087C0.350164 4.97095 0.487873 4.83398 0.648367 4.728L7.10929 0.255209C7.3508 0.0889927 7.63708 0 7.93026 0C8.22344 0 8.50972 0.0889927 8.75123 0.255209L15.2122 4.72603C15.5269 4.94428 15.7422 5.27848 15.8108 5.65529C15.8794 6.03209 15.7957 6.42073 15.5781 6.73591ZM8.76112 7.92286C8.7402 7.70124 8.63737 7.4954 8.47274 7.34557C8.30811 7.19575 8.09351 7.11272 7.87091 7.11272C7.64831 7.11272 7.43371 7.19575 7.26908 7.34557C7.10445 7.4954 7.00162 7.70124 6.98071 7.92286V8.3917H8.76112V7.92286ZM9.35459 9.59842C9.35459 9.67712 9.32333 9.7526 9.26768 9.80825C9.21203 9.8639 9.13655 9.89516 9.05785 9.89516C8.97916 9.89516 8.90368 9.8639 8.84803 9.80825C8.79238 9.7526 8.76112 9.67712 8.76112 9.59842V8.98517H6.98071V9.60634C6.98071 9.68504 6.94944 9.76051 6.89379 9.81616C6.83814 9.87181 6.76267 9.90307 6.68397 9.90307C6.60527 9.90307 6.52979 9.87181 6.47415 9.81616C6.4185 9.76051 6.38723 9.68504 6.38723 9.60634V8.98517H5.65529L6.1815 13.6756H9.5623L10.0885 8.98517H9.35459V9.59842ZM14.5475 7.93868V14.269C14.5475 14.7281 14.3651 15.1684 14.0405 15.493C13.7159 15.8176 13.2756 16 12.8165 16H3.04401C2.58493 16 2.14466 15.8176 1.82004 15.493C1.49542 15.1684 1.31305 14.7281 1.31305 14.269V7.94066C1.36647 7.94066 1.4179 7.95055 1.47329 7.95055C1.88702 7.95125 2.29099 7.82489 2.63056 7.58853L7.93026 3.92088L13.23 7.58853C13.5704 7.82469 13.9749 7.95102 14.3892 7.95055C14.4426 7.95055 14.496 7.94462 14.5475 7.94066V7.93868ZM10.6404 8.48468C10.613 8.45356 10.5792 8.42865 10.5413 8.4116C10.5034 8.39454 10.4624 8.38574 10.4209 8.38576H9.35459V7.92483C9.3272 7.55006 9.159 7.19953 8.88377 6.94368C8.60854 6.68784 8.24669 6.54563 7.87091 6.54563C7.49514 6.54563 7.13328 6.68784 6.85805 6.94368C6.58283 7.19953 6.41462 7.55006 6.38723 7.92483V8.3917H5.31701C5.2753 8.39143 5.23401 8.40001 5.19586 8.41688C5.15772 8.43375 5.12359 8.45852 5.09573 8.48956C5.06787 8.5206 5.04691 8.5572 5.03425 8.59694C5.02158 8.63668 5.01749 8.67865 5.02225 8.72009L5.61572 14.0059C5.62398 14.0783 5.65859 14.1452 5.71294 14.1937C5.7673 14.2422 5.83761 14.269 5.91048 14.269H9.82739C9.90025 14.269 9.97056 14.2422 10.0249 14.1937C10.0793 14.1452 10.1139 14.0783 10.1221 14.0059L10.7156 8.72009C10.7206 8.67776 10.7165 8.63485 10.7035 8.59424C10.6906 8.55364 10.669 8.51628 10.6404 8.48468Z" fill="#662687"/>
</svg>
