<svg width="50" height="43" viewBox="0 0 50 43" fill="none" xmlns="http://www.w3.org/2000/svg">
<path d="M38.9243 16.9021L39.5905 18.4604L29.2228 22.8918L28.5566 21.3334L38.9243 16.9021ZM39.358 12.7207L38.6917 11.1623L28.324 15.5937L28.9903 17.152L39.358 12.7207ZM10.4095 18.4604L20.7772 22.8918L21.4434 21.3334L11.0757 16.9021L10.4095 18.4604ZM10.642 12.7207L21.0097 17.152L21.676 15.5937L11.3083 11.1623L10.642 12.7207ZM50 14.6651V28.704C50 28.8628 49.9554 29.0184 49.8713 29.153C49.7872 29.2877 49.6669 29.396 49.5242 29.4656L30.7212 38.6415L29.4479 41.6434C29.383 41.7966 29.2744 41.9273 29.1357 42.0192C28.997 42.1111 28.8343 42.1601 28.6679 42.1601H21.3321C21.1657 42.1601 21.003 42.1111 20.8643 42.0192C20.7256 41.9273 20.617 41.7966 20.5521 41.6434L19.2788 38.6415L0.475869 29.4656C0.333151 29.396 0.212863 29.2877 0.128724 29.153C0.0445846 29.0184 -1.90046e-05 28.8628 6.07441e-09 28.704V14.6651C1.1243e-05 14.4403 0.0893004 14.2248 0.248227 14.0659C0.407154 13.9069 0.622701 13.8176 0.847458 13.8176H6.23758V0.847366C6.23762 0.709663 6.2712 0.574041 6.33543 0.452235C6.39966 0.33043 6.4926 0.226108 6.60621 0.148296C6.71982 0.0704837 6.85068 0.021525 6.98747 0.00565561C7.12425 -0.0102138 7.26285 0.00748371 7.39125 0.0572175L25 6.87921L42.6087 0.0572094C42.7372 0.00747537 42.8757 -0.0102223 43.0125 0.00564753C43.1493 0.0215174 43.2802 0.0704767 43.3938 0.14829C43.5074 0.226103 43.6003 0.330426 43.6646 0.452233C43.7288 0.57404 43.7624 0.709662 43.7624 0.847366V13.8176H49.1525C49.3773 13.8176 49.5928 13.9069 49.7518 14.0659C49.9107 14.2248 50 14.4403 50 14.6651ZM25.8475 31.9695L42.0675 25.6856V2.08461L25.8475 8.36855V31.9695ZM7.9325 25.6856L24.1525 31.9695V8.36855L7.9325 2.08461V25.6856ZM48.3051 15.5126H43.7624V26.2661C43.7624 26.437 43.7107 26.6039 43.6141 26.745C43.5175 26.886 43.3805 26.9945 43.2212 27.0563L25.3062 33.9969C25.2935 34.0018 25.2802 34.0037 25.2673 34.008C25.2522 34.013 25.2373 34.0167 25.222 34.0209C25.0773 34.0653 24.9227 34.0653 24.778 34.0209C24.7627 34.0167 24.7478 34.013 24.7327 34.008C24.7198 34.0037 24.7065 34.0018 24.6938 33.9969L6.77884 27.0563C6.61947 26.9945 6.48251 26.886 6.38592 26.745C6.28933 26.604 6.23762 26.437 6.23758 26.2661V15.5126H1.69492V28.1746L20.3067 37.2574C20.4905 37.3469 20.6356 37.4999 20.7151 37.6882L21.8932 40.4652H28.1068L29.2849 37.6882C29.3644 37.4999 29.5095 37.3469 29.6933 37.2574L48.3051 28.1746V15.5126Z" fill="#15403D"/>
</svg>
