<svg width="44" height="41" viewBox="0 0 44 41" fill="none" xmlns="http://www.w3.org/2000/svg">
<path d="M4.70312 0C2.09695 0 0 2.17816 0 4.82812V28.5312C0 31.1968 2.09718 33.3906 4.70312 33.3906H26.1562L38.2188 40.8438C38.3698 40.9385 38.5435 40.991 38.7218 40.9961C38.9 41.0011 39.0764 40.9583 39.2326 40.8723C39.3887 40.7862 39.5191 40.66 39.6101 40.5066C39.701 40.3532 39.7494 40.1783 39.75 40V38.9688C39.768 37.657 39.7656 35.6843 39.7656 33.2969C42.1464 33.0367 44 31.0169 44 28.5312V4.82812C44 2.17838 41.9036 0 39.2969 0H4.70312ZM4.70312 2H39.2969C40.8032 2 42 3.20415 42 4.82812V28.5312C42 30.1611 40.8227 31.3766 39.3125 31.3906C38.406 31.3906 37.7656 32.0424 37.7656 32.9531C37.7656 35.2249 37.7626 36.8639 37.75 38.2031L27.125 31.625C27.1198 31.625 27.1146 31.625 27.1094 31.625C26.8432 31.4622 26.5294 31.3906 26.2969 31.3906H4.70312C3.19747 31.3906 2 30.1804 2 28.5312V4.82812C2 3.20437 3.1977 2 4.70312 2ZM21.8906 7.14062C21.6421 7.16794 21.4128 7.28736 21.2479 7.47535C21.0831 7.66334 20.9946 7.90627 21 8.15625V17.2656C20.9981 17.3981 21.0226 17.5297 21.072 17.6527C21.1214 17.7756 21.1948 17.8876 21.2878 17.9819C21.3809 18.0763 21.4918 18.1512 21.614 18.2024C21.7363 18.2535 21.8675 18.2799 22 18.2799C22.1325 18.2799 22.2637 18.2535 22.386 18.2024C22.5082 18.1512 22.6191 18.0763 22.7122 17.9819C22.8052 17.8876 22.8786 17.7756 22.928 17.6527C22.9774 17.5297 23.0019 17.3981 23 17.2656V8.15625C23.0031 8.01389 22.9757 7.87252 22.9197 7.7416C22.8638 7.61067 22.7805 7.4932 22.6755 7.39705C22.5704 7.3009 22.4461 7.22829 22.3107 7.18407C22.1754 7.13985 22.0322 7.12503 21.8906 7.14062ZM22 21.0938C21.0855 21.0938 20.3438 21.8472 20.3438 22.7656C20.3438 23.6841 21.0855 24.4219 22 24.4219C22.9145 24.4219 23.6562 23.6841 23.6562 22.7656C23.6562 21.8472 22.9145 21.0938 22 21.0938Z" fill="#15403D"/>
</svg>
