<svg width="50" height="41" viewBox="0 0 50 41" fill="none" xmlns="http://www.w3.org/2000/svg">
<path d="M46.0938 37.3047H3.90625C2.87025 37.3047 1.87668 36.8931 1.14411 36.1606C0.41155 35.428 0 34.4344 0 33.3984V3.90625C0 2.87025 0.41155 1.87668 1.14411 1.14411C1.87668 0.41155 2.87025 0 3.90625 0H46.0938C47.1298 0 48.1233 0.41155 48.8559 1.14411C49.5885 1.87668 50 2.87025 50 3.90625V33.3984C50 34.4344 49.5885 35.428 48.8559 36.1606C48.1233 36.8931 47.1298 37.3047 46.0938 37.3047ZM3.90625 1.5625C3.28465 1.5625 2.68851 1.80943 2.24897 2.24897C1.80943 2.68851 1.5625 3.28465 1.5625 3.90625V33.3984C1.5625 34.02 1.80943 34.6162 2.24897 35.0557C2.68851 35.4953 3.28465 35.7422 3.90625 35.7422H46.0938C46.7154 35.7422 47.3115 35.4953 47.751 35.0557C48.1906 34.6162 48.4375 34.02 48.4375 33.3984V3.90625C48.4375 3.28465 48.1906 2.68851 47.751 2.24897C47.3115 1.80943 46.7154 1.5625 46.0938 1.5625H3.90625Z" fill="#15403D"/>
<path d="M25 24.8594C23.0655 24.8594 21.1744 24.2857 19.5658 23.2109C17.9573 22.1362 16.7036 20.6085 15.9633 18.8213C15.223 17.034 15.0293 15.0673 15.4067 13.1699C15.7841 11.2725 16.7157 9.52967 18.0836 8.16174C19.4515 6.79381 21.1944 5.86224 23.0918 5.48482C24.9892 5.10741 26.9558 5.30111 28.7431 6.04143C30.5304 6.78175 32.058 8.03544 33.1328 9.64396C34.2076 11.2525 34.7813 13.1436 34.7813 15.0781C34.7792 17.6716 33.748 20.1583 31.9141 21.9922C30.0802 23.8261 27.5935 24.8573 25 24.8594ZM25 6.89063C23.3732 6.89064 21.7829 7.37346 20.4307 8.27794C19.0784 9.18242 18.0251 10.4679 17.4039 11.9715C16.7828 13.4751 16.6219 15.1292 16.9415 16.7243C17.2612 18.3194 18.0471 19.7838 19.1996 20.932C20.3522 22.0801 21.8195 22.8604 23.4158 23.174C25.0122 23.4876 26.6657 23.3204 28.1669 22.6935C29.6681 22.0667 30.9495 21.0084 31.8489 19.6527C32.7482 18.297 33.2249 16.705 33.2188 15.0781C33.2167 12.899 32.3501 10.8097 30.8093 9.26888C29.2684 7.72801 27.1791 6.86145 25 6.85938V6.89063Z" fill="#15403D"/>
<path d="M23.1797 19.7109C22.9725 19.7109 22.7738 19.6286 22.6273 19.4821C22.4807 19.3356 22.3984 19.1369 22.3984 18.9297V11.2266C22.3988 11.0852 22.4375 10.9466 22.5104 10.8256C22.5834 10.7045 22.6878 10.6055 22.8125 10.5391C22.9347 10.4763 23.0712 10.4469 23.2084 10.4538C23.3455 10.4606 23.4785 10.5035 23.5938 10.5781L29.2656 14.4297C29.372 14.5011 29.4591 14.5977 29.5194 14.7107C29.5796 14.8238 29.6111 14.95 29.6111 15.0781C29.6111 15.2062 29.5796 15.3324 29.5194 15.4455C29.4591 15.5586 29.372 15.6551 29.2656 15.7266L23.5938 19.5781C23.4711 19.6607 23.3275 19.7067 23.1797 19.7109ZM23.9609 12.6797V17.4297L27.4609 15.0859L23.9609 12.6797Z" fill="#15403D"/>
<path d="M42.8672 30.7578H16.7969C16.5897 30.7578 16.391 30.6755 16.2444 30.529C16.0979 30.3825 16.0156 30.1838 16.0156 29.9766C16.0156 29.7694 16.0979 29.5707 16.2444 29.4241C16.391 29.2776 16.5897 29.1953 16.7969 29.1953H42.8672C43.0744 29.1953 43.2731 29.2776 43.4196 29.4241C43.5661 29.5707 43.6484 29.7694 43.6484 29.9766C43.6484 30.1838 43.5661 30.3825 43.4196 30.529C43.2731 30.6755 43.0744 30.7578 42.8672 30.7578Z" fill="#15403D"/>
<path d="M11.625 32.7969C11.0657 32.7969 10.5189 32.631 10.0538 32.3202C9.5887 32.0095 9.22621 31.5678 9.01215 31.051C8.7981 30.5343 8.74209 29.9656 8.85122 29.417C8.96034 28.8684 9.22969 28.3645 9.62521 27.969C10.0207 27.5734 10.5247 27.3041 11.0733 27.195C11.6219 27.0858 12.1905 27.1418 12.7073 27.3559C13.2241 27.57 13.6657 27.9324 13.9765 28.3975C14.2873 28.8626 14.4531 29.4094 14.4531 29.9688C14.4531 30.7188 14.1552 31.4382 13.6248 31.9685C13.0944 32.4989 12.3751 32.7969 11.625 32.7969ZM11.625 28.7031C11.3747 28.7031 11.13 28.7774 10.9219 28.9164C10.7137 29.0555 10.5515 29.2532 10.4557 29.4844C10.3599 29.7157 10.3349 29.9702 10.3837 30.2157C10.4325 30.4612 10.5531 30.6867 10.7301 30.8637C10.9071 31.0407 11.1326 31.1612 11.3781 31.2101C11.6236 31.2589 11.8781 31.2338 12.1093 31.138C12.3406 31.0422 12.5383 30.88 12.6773 30.6719C12.8164 30.4638 12.8906 30.2191 12.8906 29.9688C12.8886 29.6337 12.7546 29.313 12.5177 29.0761C12.2808 28.8392 11.96 28.7052 11.625 28.7031Z" fill="#15403D"/>
<path d="M43.1406 40.9062H6.85937C6.65217 40.9062 6.45346 40.8239 6.30695 40.6774C6.16044 40.5309 6.07812 40.3322 6.07812 40.125C6.07812 39.9178 6.16044 39.7191 6.30695 39.5726C6.45346 39.4261 6.65217 39.3438 6.85937 39.3438H43.1406C43.3478 39.3438 43.5465 39.4261 43.693 39.5726C43.8396 39.7191 43.9219 39.9178 43.9219 40.125C43.9219 40.3322 43.8396 40.5309 43.693 40.6774C43.5465 40.8239 43.3478 40.9062 43.1406 40.9062Z" fill="#15403D"/>
</svg>
